<svg width="1439" height="668" viewBox="0 0 1439 668" fill="none" xmlns="http://www.w3.org/2000/svg">
<g clip-path="url(#clip0_85_70)">
<mask id="mask0_85_70" style="mask-type:luminance" maskUnits="userSpaceOnUse" x="-1" y="0" width="1440" height="668">
<path d="M1439 0H-1V668H1439V0Z" fill="white"/>
</mask>
<g mask="url(#mask0_85_70)">
<path d="M139 157.028C133.81 157.028 129.18 161.93 129.18 167C129.18 172.213 133.79 177.604 139 177.604C145.21 177.604 152.02 172.189 152.02 167C152.02 161.906 145.23 157.028 139 157.028Z" stroke="#C23333" stroke-opacity="0.58" stroke-width="2"/>
<path d="M404.26 1.33636e-05C423.41 7.31223 407.72 53.44 419 53.44C432.59 53.44 429.41 9.3878 454 1.33636e-05C499.41 -17.3322 506.5 1.33636e-05 559 1.33636e-05C629 1.33636e-05 629 1.33636e-05 699 1.33636e-05C769 1.33636e-05 769 1.33636e-05 839 1.33636e-05C909 1.33636e-05 909 1.33636e-05 979 1.33636e-05C999 1.33636e-05 1001.23 -9.35199 1019 1.33636e-05C1071.23 27.4834 1077.58 73.6709 1119 73.6709C1143.49 73.6709 1123.45 14.4097 1150.82 1.33636e-05C1193.45 -22.4257 1204.91 1.33636e-05 1259 1.33636e-05C1329 1.33636e-05 1329 1.33636e-05 1399 1.33636e-05C1469 1.33636e-05 1498.06 -34.6644 1539 1.33636e-05C1568.06 24.5967 1548 62.4699 1539 118.51C1534.59 145.97 1512.19 142.761 1512.19 167C1512.19 191.239 1534.59 188.03 1539 215.49C1548 271.53 1539 274.739 1539 334C1539 388.024 1547.87 390.899 1539 442.061C1533.39 474.399 1510.03 471.19 1510.03 501C1510.03 532.98 1532.96 530.798 1539 565.641C1547.44 614.298 1565.6 648.556 1539 668C1495.6 699.73 1469 668 1399 668C1329 668 1329 668 1259 668C1189 668 1189 668 1119 668C1049 668 1049 668 979 668C909 668 909 668 839 668C769 668 769 668 699 668C629 668 629 668 559 668C489 668 489 668 419 668C361 668 337.06 702.831 303 668C267.06 631.26 296.87 592.683 279 524.857C274.87 509.183 272.15 505.891 259 501C202.15 479.851 194.89 472.777 139 472.777C124.77 472.777 118.76 483.548 118.76 501C118.76 569.231 122.67 576.389 139 644.143C142.79 659.889 159 661.01 159 668C159 672.938 149 668 139 668C69 668 34 709.75 -1 668C-36 626.25 -1 584.5 -1 501C-1 417.5 -1 417.5 -1 334C-1 250.5 -1 250.5 -1 167C-1 83.5 -36 41.75 -1 1.33636e-05C34 -41.75 69 1.33636e-05 139 1.33636e-05C209 1.33636e-05 209 1.33636e-05 279 1.33636e-05C341.63 1.33636e-05 353.41 -19.4078 404.26 1.33636e-05Z" stroke="#C23333" stroke-opacity="0.58" stroke-width="2"/>
<path d="M419 375.75C347.36 413.23 293 455.075 293 501C293 537.478 354.94 533.291 419 540.555C487.94 548.38 488.98 531.537 559 531.179C628.98 530.821 631.09 548.726 699 539.124C737.84 533.637 772.5 520.145 772.5 501C772.5 481.819 734.16 485.386 699 462.459C627.41 415.794 634.29 385.15 559 361.829C494.29 341.789 480.36 343.65 419 375.75Z" stroke="#C23333" stroke-opacity="0.58" stroke-width="2"/>
<path d="M979 485.35C968.37 485.35 959.91 489 959.91 501C959.91 538.575 963.77 584.5 979 584.5C996.65 584.5 1025.67 532.456 1025.67 501C1025.67 482.88 1001.25 485.35 979 485.35Z" stroke="#C23333" stroke-opacity="0.58" stroke-width="2"/>
<path d="M139 94.7129C101.35 94.7129 67.77 130.212 67.77 167C67.77 204.79 101.18 243.868 139 243.868C184.01 243.868 233.42 204.635 233.42 167C233.42 130.057 184.17 94.7129 139 94.7129Z" stroke="#C23333" stroke-opacity="0.58" stroke-width="2"/>
<path d="M358.21 1.33636e-05C386.68 53.3804 363.12 83.5 368.09 167C373.06 250.5 400.69 263.347 378.08 334C356.15 402.518 337.41 425.79 279 445.329C217.87 465.775 199.46 397.341 139 413.969C98.25 425.182 87.49 449.385 76.59 501C60.66 576.4 109.35 616.313 85.33 668C70.55 699.813 15.46 699.849 -1 668C-27.7 616.349 -1 584.5 -1 501C-1 417.5 -1 417.5 -1 334C-1 250.5 -1 250.5 -1 167C-1 83.5 -36 41.75 -1 1.33636e-05C34 -41.75 69 1.33636e-05 139 1.33636e-05C209 1.33636e-05 209 1.33636e-05 279 1.33636e-05C318.61 1.33636e-05 342.14 -30.1196 358.21 1.33636e-05Z" stroke="#C23333" stroke-opacity="0.58" stroke-width="2"/>
<path d="M442.33 167C442.33 92.697 500.7 85.5637 559 4.06771C560.43 2.06371 559.62 0.0597082 561.8 6.52998e-05C629.62 -1.96815 630.4 6.52998e-05 699 6.52998e-05C746.64 6.52998e-05 786.03 -32.4814 794.28 6.52998e-05C807.24 51.0186 740.63 83.8221 741.42 167C742.21 250.822 809.24 264.6 797.44 334C788.03 389.384 747.84 416.582 699 416.582C651.61 416.582 649.28 378.899 604.97 334C579.28 307.972 584.57 300.994 559 274.739C503.25 217.494 442.33 228.027 442.33 167Z" stroke="#C23333" stroke-opacity="0.58" stroke-width="2"/>
<path d="M910.56 167C915.54 114.514 940.39 77.3926 979 77.3926C1029.61 77.3926 1035.12 120.467 1089 167C1105.12 180.921 1105.17 198.313 1119 198.313C1130.67 198.313 1132.39 184.774 1140 167C1174.82 85.6233 1160.05 61.468 1203.85 3.97281e-05C1219.55 -22.032 1231.43 3.97281e-05 1259 3.97281e-05C1319.66 3.97281e-05 1326.98 -14.9703 1380.33 3.97281e-05C1396.98 4.67604 1391.84 18.4535 1399 39.2928C1420.53 101.954 1413.29 105.926 1437.72 167C1472.23 253.279 1513.85 249.033 1516.89 334C1519.83 416.033 1485.81 419.122 1449.69 501C1426.87 552.722 1423.86 550.766 1399 601.2C1382.71 634.266 1393.46 655.559 1367.39 668C1323.46 688.959 1313.2 668 1259 668C1202.05 668 1166.1 705.253 1145.1 668C1119.03 621.753 1173.39 578.667 1164.86 501C1160.34 459.906 1149.43 454.407 1119 430.49C1056.5 381.345 1047.76 395.241 979 354.875C965.58 347.002 960.46 349.937 954.65 334C926.24 255.999 903.37 242.818 910.56 167Z" stroke="#C23333" stroke-opacity="0.58" stroke-width="2"/>
<path d="M353 668C353 647.113 378.86 612.341 419 595.486C481.86 569.088 488.88 584.238 559 581.482C628.88 578.739 629.78 592.6 699 584.5C769.78 576.222 784.44 525.561 839 548.714C882.82 567.311 895.76 628.063 895.76 668C895.76 687.706 867.38 668 839 668C769 668 769 668 699 668C629 668 629 668 559 668C489 668 489 668 419 668C386 668 353 683.364 353 668Z" stroke="#C23333" stroke-opacity="0.58" stroke-width="2"/>
<path d="M139 32.398C66.26 49.3008 6.37 98.4942 6.37 167C6.37 237.367 66.49 294.874 139 310.143C202.8 323.574 222.89 217.184 279 224.412C315.51 229.112 324.23 284.079 324.23 334C324.23 364.287 307.17 381.607 279 384.828C214.55 392.199 196.37 327.916 139 355.173C74.08 386.009 64.34 417.416 34.42 501C8.34 573.836 41.76 598.397 27 668C24.05 681.897 1.33 681.921 -1 668C-12.67 598.421 -1 584.5 -1 501C-1 417.5 -1 417.5 -1 334C-1 250.5 -1 250.5 -1 167C-1 83.5 -36 41.75 -1 1.33636e-05C34 -41.75 69 1.33636e-05 139 1.33636e-05C209 1.33636e-05 209 1.33636e-05 279 1.33636e-05C295.58 1.33636e-05 312.16 -13.6224 312.16 1.33636e-05C312.16 38.2072 311.84 97.5161 279 103.659C225.26 113.715 202.58 17.6304 139 32.398Z" stroke="#C23333" stroke-opacity="0.58" stroke-width="2"/>
<path d="M515.25 167C515.25 139.135 534.14 105.902 559 105.902C591.01 105.902 629 140.244 629 167C629 190.988 592.23 207.402 559 207.402C535.36 207.402 515.25 189.891 515.25 167Z" stroke="#C23333" stroke-opacity="0.58" stroke-width="2"/>
<path d="M699 102.765C668.98 102.765 631.8 31.8135 631.8 2.28882e-05C631.8 -19.5628 665.4 2.28882e-05 699 2.28882e-05C722.34 2.28882e-05 745.67 -16.5807 745.67 2.28882e-05C745.67 34.8076 725.92 102.765 699 102.765Z" stroke="#C23333" stroke-opacity="0.58" stroke-width="2"/>
<path d="M1227.5 167C1226.74 87.1143 1241.36 82.2833 1256.88 -1.74439e-05C1257.11 -1.21673 1257.94 -1.74439e-05 1259 -1.74439e-05C1261.34 -1.74439e-05 1262.77 -2.51695 1263.67 -1.74439e-05C1292.77 80.9831 1320.55 93.019 1319 167C1318.22 204.36 1285.28 222.671 1259 222.671C1239.53 222.671 1227.8 198.444 1227.5 167Z" stroke="#C23333" stroke-opacity="0.58" stroke-width="2"/>
<path d="M657.21 334C657.21 292.047 677.72 238.571 699 238.571C720.49 238.571 742.75 292.357 742.75 334C742.75 358.43 720.71 370.704 699 370.704C677.94 370.704 657.21 358.12 657.21 334Z" stroke="#C23333" stroke-opacity="0.58" stroke-width="2"/>
<path d="M1112.64 334C1112.64 331.674 1115.75 328.787 1119 328.787C1122.61 328.787 1126.37 331.698 1126.37 334C1126.37 336.159 1122.64 337.71 1119 337.71C1115.78 337.71 1112.64 336.135 1112.64 334Z" stroke="#C23333" stroke-opacity="0.58" stroke-width="2"/>
<path d="M1225.21 501C1234.24 461.302 1233.39 427.938 1259 427.938C1304.73 427.938 1356.14 446.677 1367.89 501C1382.11 566.715 1351.46 605.852 1310.94 668C1297.02 689.352 1284.97 668 1259 668C1231.71 668 1209.12 691.237 1204.42 668C1192.23 607.737 1206.95 581.327 1225.21 501Z" stroke="#C23333" stroke-opacity="0.58" stroke-width="2"/>
<path d="M403 668C403 662.93 408.57 652.839 419 650.417C486.57 634.731 488.79 636.938 559 631.785C628.79 626.668 630.53 619.319 699 629.876C747.95 637.427 793.84 658.219 793.84 668C793.84 677.28 746.42 668 699 668C629 668 629 668 559 668C489 668 489 668 419 668C411 668 403 671.722 403 668Z" stroke="#C23333" stroke-opacity="0.58" stroke-width="2"/>
</g>
<rect x="58" y="295" width="25" height="1" fill="#D9D9D9"/>
</g>
<defs>
<clipPath id="clip0_85_70">
<rect width="1440" height="668" fill="white" transform="translate(-1)"/>
</clipPath>
</defs>
</svg>
